<?xml version="1.0" encoding="UTF-8" standalone="no"?>
<svg
   width="424.20499"
   zoomAndPan="magnify"
   viewBox="0 0 318.15374 123.84964"
   height="165.13286"
   preserveAspectRatio="xMidYMid"
   version="1.0"
   id="svg72"
   sodipodi:docname="logo-white.svg"
   inkscape:version="1.3.2 (091e20e, 2023-11-25)"
   xmlns:inkscape="http://www.inkscape.org/namespaces/inkscape"
   xmlns:sodipodi="http://sodipodi.sourceforge.net/DTD/sodipodi-0.dtd"
   xmlns="http://www.w3.org/2000/svg"
   xmlns:svg="http://www.w3.org/2000/svg">
  <sodipodi:namedview
     id="namedview72"
     pagecolor="#505050"
     bordercolor="#eeeeee"
     borderopacity="1"
     inkscape:showpageshadow="0"
     inkscape:pageopacity="0"
     inkscape:pagecheckerboard="0"
     inkscape:deskcolor="#505050"
     inkscape:zoom="0.99062467"
     inkscape:cx="259.43226"
     inkscape:cy="218.04424"
     inkscape:window-width="1416"
     inkscape:window-height="891"
     inkscape:window-x="54"
     inkscape:window-y="37"
     inkscape:window-maximized="0"
     inkscape:current-layer="svg72" />
  <defs
     id="defs1">
    <g
       id="g1" />
  </defs>
  <g
     fill="#000000"
     fill-opacity="1"
     id="g4"
     transform="translate(-29.203113,-122.16406)"
     style="fill:#ffffff">
    <g
       transform="translate(28.869143,187.94996)"
       id="g3"
       style="fill:#ffffff">
      <g
         id="g2"
         style="fill:#ffffff">
        <path
           d="m 33.296875,-21.46875 c -0.9375,1.5625 -2.121094,2.984375 -3.546875,4.265625 -1.429688,1.28125 -2.984375,2.398437 -4.671875,3.34375 -1.679687,0.9375 -3.355469,1.699219 -5.03125,2.28125 -1.679687,0.585937 -3.226563,0.992187 -4.640625,1.21875 -0.1875,0.02344 -0.320312,0.117187 -0.390625,0.28125 -0.08594,0.148437 -0.07813,0.304687 0.01563,0.46875 0.582031,0.9375 1.222656,1.902344 1.921875,2.890625 0.695313,0.992188 1.457031,1.90625 2.28125,2.75 0.820313,0.835938 1.691406,1.515625 2.609375,2.046875 0.925781,0.523437 1.914062,0.78125 2.96875,0.78125 0.144531,0 0.300781,-0.00781 0.46875,-0.03125 0.75,-0.0625 1.40625,-0.253906 1.96875,-0.578125 0.570312,-0.320312 1.050781,-0.707031 1.4375,-1.15625 0.394531,-0.445312 0.710938,-0.890625 0.953125,-1.328125 0.25,-0.445313 0.429687,-0.8125 0.546875,-1.09375 0.113281,-0.289063 0.171875,-0.445313 0.171875,-0.46875 0.05078,-0.1875 0.164063,-0.332031 0.34375,-0.4375 0.175781,-0.101563 0.359375,-0.125 0.546875,-0.0625 0.207031,0.074219 0.359375,0.199219 0.453125,0.375 0.09375,0.179687 0.109375,0.359375 0.04687,0.546875 -0.02344,0.042969 -0.105469,0.25 -0.25,0.625 -0.136719,0.367188 -0.355469,0.8125 -0.65625,1.34375 -0.292969,0.523438 -0.683594,1.054688 -1.171875,1.59375 -0.480469,0.53125 -1.074219,0.996094 -1.78125,1.390625 -0.710937,0.3984375 -1.542969,0.640625 -2.5,0.734375 -0.199219,0 -0.402344,0 -0.609375,0 -1.15625,0 -2.234375,-0.2460938 -3.234375,-0.734375 -1,-0.5 -1.9375,-1.160156 -2.8125,-1.984375 C 17.859375,-3.226562 17.050781,-4.132812 16.3125,-5.125 15.570312,-6.113281 14.894531,-7.09375 14.28125,-8.0625 14.238281,-8.113281 14.179688,-8.132812 14.109375,-8.125 14.035156,-8.125 14,-8.085938 14,-8.015625 c -0.3125,1.386719 -0.652344,2.636719 -1.015625,3.75 -0.367187,1.105469 -0.789063,2.015625 -1.265625,2.734375 -0.480469,0.710938 -1.042969,1.148438 -1.6875,1.3125 C 9.75,-0.144531 9.503906,-0.203125 9.296875,-0.390625 9.085938,-0.597656 9.019531,-0.84375 9.09375,-1.125 c 0.082031,-0.28125 0.257812,-0.445312 0.53125,-0.5 0.351562,-0.09375 0.6875,-0.390625 1,-0.890625 0.3125,-0.507813 0.601562,-1.15625 0.875,-1.9375 0.269531,-0.78125 0.519531,-1.648437 0.75,-2.609375 0.226562,-0.96875 0.445312,-1.945312 0.65625,-2.9375 0.01953,-0.09375 0.0078,-0.144531 -0.03125,-0.15625 -0.03125,-0.01953 -0.07031,-0.03125 -0.109375,-0.03125 -0.65625,0 -1.296875,-0.125 -1.921875,-0.375 C 10.300781,-10.75 9.894531,-11.101562 9.625,-11.625 9.351562,-12.144531 9.304688,-12.6875 9.484375,-13.25 c 0.039063,-0.101562 0.097656,-0.265625 0.171875,-0.484375 0.070312,-0.21875 0.191406,-0.414063 0.359375,-0.59375 0.175781,-0.1875 0.40625,-0.300781 0.6875,-0.34375 0.425781,-0.05078 0.820313,0.101563 1.1875,0.453125 0.375,0.355469 0.796875,0.898438 1.265625,1.625 0.07031,0.09375 0.128906,0.125 0.171875,0.09375 0.05078,-0.03125 0.09766,-0.08203 0.140625,-0.15625 0.300781,-1.507812 0.597656,-2.941406 0.890625,-4.296875 0.300781,-1.351563 0.632813,-2.566406 1,-3.640625 0.363281,-1.070312 0.78125,-1.953125 1.25,-2.640625 0.476563,-0.695313 1.046875,-1.117187 1.703125,-1.265625 0.1875,-0.05078 0.367188,-0.01953 0.546875,0.09375 0.175781,0.105469 0.285156,0.25 0.328125,0.4375 0.05078,0.210938 0.02344,0.398438 -0.07813,0.5625 -0.105469,0.167969 -0.261719,0.277344 -0.46875,0.328125 -0.429687,0.117187 -0.820313,0.523437 -1.171875,1.21875 -0.355469,0.6875 -0.6875,1.5625 -1,2.625 -0.304688,1.0625 -0.589844,2.210937 -0.859375,3.4375 -0.273437,1.21875 -0.515625,2.40625 -0.734375,3.5625 -0.02344,0.05469 -0.03125,0.08984 -0.03125,0.109375 0,0.02344 -0.01172,0.04687 -0.03125,0.07813 0,0.0625 0.01563,0.125 0.04687,0.1875 0.03906,0.05469 0.08203,0.07813 0.125,0.07813 1.019531,-0.175781 2.144531,-0.453125 3.375,-0.828125 1.238281,-0.382813 2.507813,-0.875 3.8125,-1.46875 1.3125,-0.601563 2.582031,-1.304687 3.8125,-2.109375 1.226563,-0.800781 2.363281,-1.703125 3.40625,-2.703125 1.050781,-1.007813 1.921875,-2.125 2.609375,-3.34375 1.738281,-2.925781 1.945312,-5.046875 0.625,-6.359375 -0.679688,-0.644531 -1.679688,-1.09375 -3,-1.34375 -1.324219,-0.257812 -2.867188,-0.328125 -4.625,-0.203125 -1.75,0.125 -3.609375,0.421875 -5.578125,0.890625 -1.960937,0.460938 -3.914063,1.078125 -5.859375,1.859375 -1.949219,0.773437 -3.78125,1.679687 -5.5,2.71875 -0.6875,0.429687 -1.4375,0.953125 -2.25,1.578125 C 5,-22.476562 4.242188,-21.78125 3.546875,-21 c -0.6875,0.78125 -1.195313,1.617188 -1.515625,2.5 -0.3125,0.886719 -0.320312,1.808594 -0.015625,2.765625 0.050781,0.210937 0.03125,0.402344 -0.0625,0.578125 -0.09375,0.179688 -0.242187,0.292969 -0.4375,0.34375 -0.1875,0.05469 -0.371094,0.03125 -0.546875,-0.0625 -0.179688,-0.09375 -0.304688,-0.226562 -0.375,-0.40625 -0.5429688,-1.78125 -0.234375,-3.582031 0.921875,-5.40625 1.15625,-1.832031 3.085937,-3.578125 5.796875,-5.234375 1.394531,-0.84375 2.914062,-1.617187 4.5625,-2.328125 1.644531,-0.707031 3.328125,-1.3125 5.046875,-1.8125 1.726563,-0.507812 3.4375,-0.898438 5.125,-1.171875 1.6875,-0.269531 3.28125,-0.40625 4.78125,-0.40625 1.507813,0 2.847656,0.167969 4.015625,0.5 1.164062,0.324219 2.101562,0.828125 2.8125,1.515625 0.425781,0.40625 0.769531,0.96875 1.03125,1.6875 0.257812,0.710938 0.304688,1.589844 0.140625,2.640625 -0.167969,1.054687 -0.679687,2.328125 -1.53125,3.828125 z m -21.875,9.5625 c 0.09375,0.04297 0.195313,0.07422 0.3125,0.09375 0.03125,0.02344 0.06641,0.02344 0.109375,0 0.05078,-0.01953 0.05078,-0.06641 0,-0.140625 -0.242188,-0.351563 -0.492188,-0.691406 -0.75,-1.015625 -0.08594,-0.09375 -0.140625,-0.0625 -0.171875,0.09375 -0.07422,0.199219 -0.08594,0.382812 -0.03125,0.546875 0.05078,0.15625 0.226563,0.296875 0.53125,0.421875 z m 0,0"
           id="path2"
           style="fill:#ffffff" />
      </g>
    </g>
  </g>
  <g
     fill="#000000"
     fill-opacity="1"
     id="g7"
     transform="translate(-29.203113,-122.16406)"
     style="fill:#ffffff">
    <g
       transform="translate(62.156606,187.94996)"
       id="g6"
       style="fill:#ffffff">
      <g
         id="g5"
         style="fill:#ffffff">
        <path
           d="m 23.40625,-6.796875 c 0.132812,0.148437 0.203125,0.324219 0.203125,0.53125 -0.02344,0.199219 -0.105469,0.367187 -0.25,0.5 -0.0625,0.054687 -0.34375,0.289063 -0.84375,0.703125 -0.492187,0.40625 -1.140625,0.890625 -1.953125,1.453125 -0.8125,0.5625 -1.730469,1.109375 -2.75,1.640625 -1.011719,0.53125 -2.085938,0.960938 -3.21875,1.28125 -1.125,0.3125 -2.257812,0.433594 -3.390625,0.359375 -1.125,-0.082031 -2.199219,-0.457031 -3.21875,-1.125 -0.792969,-0.507813 -1.417969,-1.164063 -1.875,-1.96875 -0.136719,-0.21875 -0.34375,-0.335937 -0.625,-0.359375 -0.261719,-0.019531 -0.464844,0.085938 -0.609375,0.3125 -0.417969,0.617188 -0.871094,1.199219 -1.359375,1.75 -0.480469,0.554688 -0.976563,0.996094 -1.484375,1.328125 -0.5,0.3359375 -0.980469,0.507813 -1.4375,0.53125 H 0.5625 c -0.335938,-0.023437 -0.6445312,-0.125 -0.9375,-0.3125 -0.289062,-0.195313 -0.503906,-0.457031 -0.640625,-0.78125 -0.550781,-1.394531 -0.460937,-2.757813 0.265625,-4.09375 0.617188,-1.28125 1.472656,-2.375 2.578125,-3.28125 C 2.941406,-9.234375 4.195312,-9.851562 5.59375,-10.1875 5.875,-10.25781 6.109375,-10.1953 6.296875,-10 6.503906,-9.789062 6.570312,-9.546875 6.5,-9.265625 c -0.09375,0.261719 -0.28125,0.429687 -0.5625,0.5 -1.179688,0.28125 -2.234375,0.804687 -3.171875,1.5625 -0.929687,0.75 -1.652344,1.679687 -2.171875,2.78125 -0.53125,0.898437 -0.625,1.828125 -0.28125,2.796875 0.101562,0.1875 0.1875,0.28125 0.25,0.28125 0.164062,0.117188 0.414062,0 0.75,-0.34375 0.332031,-0.351562 0.710938,-0.84375 1.140625,-1.46875 0.4375,-0.632812 0.863281,-1.332031 1.28125,-2.09375 0.425781,-0.769531 0.804687,-1.519531 1.140625,-2.25 0.144531,-0.34375 0.40625,-0.484375 0.78125,-0.421875 0.351562,0.054687 0.554688,0.257813 0.609375,0.609375 0,0.023438 0.035156,0.203125 0.109375,0.546875 0.082031,0.34375 0.21875,0.773437 0.40625,1.28125 0.1875,0.5 0.441406,1.011719 0.765625,1.53125 0.320313,0.511719 0.738281,0.933594 1.25,1.265625 0.851563,0.585938 1.78125,0.890625 2.78125,0.921875 1,0.023437 2,-0.128906 3,-0.453125 1.007813,-0.332031 1.976563,-0.742188 2.90625,-1.234375 0.925781,-0.5 1.753906,-1.007813 2.484375,-1.53125 0.726562,-0.519531 1.304688,-0.957031 1.734375,-1.3125 0.425781,-0.351563 0.648437,-0.539063 0.671875,-0.5625 0.144531,-0.132813 0.320312,-0.195313 0.53125,-0.1875 0.207031,0.011719 0.375,0.09375 0.5,0.25 z m 0,0"
           id="path4"
           style="fill:#ffffff" />
      </g>
    </g>
  </g>
  <g
     fill="#000000"
     fill-opacity="1"
     id="g10"
     transform="translate(-29.203113,-122.16406)"
     style="fill:#ffffff">
    <g
       transform="translate(84.777522,187.94996)"
       id="g9"
       style="fill:#ffffff">
      <g
         id="g8"
         style="fill:#ffffff">
        <path
           d="m 24.296875,-7.875 c 0.15625,0.136719 0.234375,0.308594 0.234375,0.515625 0,0.199219 -0.07031,0.375 -0.203125,0.53125 -0.710937,0.730469 -1.585937,1.5 -2.625,2.3125 -1.03125,0.8125 -2.164063,1.578125 -3.390625,2.296875 -1.21875,0.71875 -2.46875,1.296875 -3.75,1.734375 -1.273438,0.4375 -2.484375,0.65625 -3.640625,0.65625 h -0.0625 C 9.234375,0.222656 7.875,-0.335938 6.78125,-1.515625 6.3125,-2.035156 6.03125,-2.640625 5.9375,-3.328125 5.894531,-3.585938 5.742188,-3.757812 5.484375,-3.84375 5.242188,-3.914062 5.03125,-3.859375 4.84375,-3.671875 4.28125,-3.066406 3.691406,-2.535156 3.078125,-2.078125 2.460938,-1.628906 1.851562,-1.316406 1.25,-1.140625 0.65625,-0.972656 0.109375,-1.039062 -0.390625,-1.34375 -0.878906,-1.625 -1.144531,-2.050781 -1.1875,-2.625 c -0.050781,-0.582031 0.027344,-1.21875 0.234375,-1.90625 0.210937,-0.695312 0.46875,-1.363281 0.78125,-2 0.300781,-0.644531 0.5625,-1.175781 0.78125,-1.59375 C 0.722656,-8.289062 0.875,-8.394531 1.0625,-8.4375 1.25,-8.488281 1.425781,-8.46875 1.59375,-8.375 c 0.164062,0.09375 0.273438,0.234375 0.328125,0.421875 0.0625,0.1875 0.054687,0.375 -0.015625,0.5625 -0.46875,0.804687 -0.839844,1.554687 -1.109375,2.25 -0.273437,0.699219 -0.445313,1.277344 -0.515625,1.734375 -0.074219,0.460938 -0.046875,0.726562 0.078125,0.796875 0.25,0.15625 0.609375,0.105469 1.078125,-0.15625 0.476562,-0.257813 1.015625,-0.664063 1.609375,-1.21875 0.601563,-0.550781 1.210937,-1.195313 1.828125,-1.9375 0.613281,-0.738281 1.179688,-1.488281 1.703125,-2.25 0.113281,-0.164063 0.257813,-0.269531 0.4375,-0.3125 0.175781,-0.039063 0.347656,-0.019531 0.515625,0.0625 0.164062,0.09375 0.28125,0.226563 0.34375,0.390625 0.070312,0.167969 0.078125,0.335938 0.015625,0.5 -0.09375,0.242188 -0.195313,0.578125 -0.296875,1.015625 -0.09375,0.4375 -0.171875,0.917969 -0.234375,1.4375 -0.054687,0.511719 -0.046875,1 0.015625,1.46875 0.0625,0.46875 0.21875,0.84375 0.46875,1.125 0.832031,0.835937 1.835938,1.234375 3.015625,1.203125 h 0.0625 c 1.039063,0 2.144531,-0.210938 3.3125,-0.640625 1.164063,-0.4375 2.316406,-0.988281 3.453125,-1.65625 1.144531,-0.675781 2.203125,-1.390625 3.171875,-2.140625 0.96875,-0.757812 1.757813,-1.46875 2.375,-2.125 0.15625,-0.144531 0.332031,-0.226562 0.53125,-0.25 0.207031,0 0.382813,0.074219 0.53125,0.21875 z m 0,0"
           id="path7"
           style="fill:#ffffff" />
      </g>
    </g>
  </g>
  <g
     fill="#000000"
     fill-opacity="1"
     id="g13"
     transform="translate(-29.203113,-122.16406)"
     style="fill:#ffffff">
    <g
       transform="translate(107.93036,187.94996)"
       id="g12"
       style="fill:#ffffff">
      <g
         id="g11"
         style="fill:#ffffff">
        <path
           d="m 30.71875,-7.109375 c 0.164062,0.125 0.257812,0.289063 0.28125,0.484375 0.01953,0.199219 -0.02734,0.382812 -0.140625,0.546875 -0.0625,0.0625 -0.277344,0.296875 -0.640625,0.703125 -0.355469,0.398438 -0.851562,0.882812 -1.484375,1.453125 -0.625,0.5625 -1.351563,1.121094 -2.171875,1.671875 -0.8125,0.554688 -1.710938,1.015625 -2.6875,1.390625 -0.980469,0.367187 -2.007812,0.546875 -3.078125,0.546875 -1.398437,0 -2.695313,-0.351562 -3.890625,-1.0625 -1.042969,-0.664062 -1.789062,-1.570312 -2.234375,-2.71875 -0.28125,-0.570312 -0.5,-0.941406 -0.65625,-1.109375 -0.15625,-0.164063 -0.40625,-0.222656 -0.75,-0.171875 -0.242187,0.042969 -0.609375,0.265625 -1.109375,0.671875 -0.492188,0.398437 -1.015625,0.898437 -1.578125,1.5 C 10.023438,-2.597656 9.5625,-1.96875 9.1875,-1.3125 8.976562,-0.976562 8.695312,-0.867188 8.34375,-0.984375 7.96875,-1.085938 7.789062,-1.335938 7.8125,-1.734375 7.863281,-2.953125 7.691406,-3.921875 7.296875,-4.640625 6.910156,-5.359375 6.53125,-5.742188 6.15625,-5.796875 5.957031,-5.835938 5.6875,-5.8125 5.34375,-5.71875 c -0.335938,0.085938 -0.757812,0.292969 -1.265625,0.625 -0.5,0.335938 -1.105469,0.851562 -1.8125,1.546875 -0.710937,0.6875 -1.53125,1.621094 -2.46875,2.796875 -0.238281,0.292969 -0.535156,0.355469 -0.890625,0.1875 C -1.445312,-0.726562 -1.578125,-1 -1.484375,-1.375 l 1.34375,-5.90625 C -0.0976562,-7.488281 0.0078125,-7.644531 0.1875,-7.75 c 0.175781,-0.113281 0.359375,-0.144531 0.546875,-0.09375 0.195313,0.042969 0.351563,0.152344 0.46875,0.328125 0.113281,0.179687 0.140625,0.359375 0.078125,0.546875 0,0 -0.027344,0.121094 -0.078125,0.359375 -0.054687,0.230469 -0.117187,0.5 -0.1875,0.8125 -0.0625,0.304687 -0.125,0.574219 -0.1875,0.8125 C 0.773438,-4.742188 0.75,-4.601562 0.75,-4.5625 c -0.011719,0.117188 0.023438,0.183594 0.109375,0.203125 0.082031,0.011719 0.160156,-0.019531 0.234375,-0.09375 0.820312,-0.78125 1.535156,-1.375 2.140625,-1.78125 0.601563,-0.414063 1.128906,-0.6875 1.578125,-0.8125 0.445312,-0.132813 0.832031,-0.191406 1.15625,-0.171875 0.332031,0.011719 0.617188,0.046875 0.859375,0.109375 0.582031,0.261719 1.070313,0.648437 1.46875,1.15625 0.40625,0.5 0.65625,1.070313 0.75,1.703125 0.019531,0.09375 0.078125,0.148438 0.171875,0.15625 0.101562,0.042969 0.1875,0.027344 0.25,-0.046875 0.59375,-0.675781 1.21875,-1.273437 1.875,-1.796875 0.664062,-0.519531 1.234375,-0.816406 1.703125,-0.890625 0.59375,-0.09375 1.070313,-0.035156 1.4375,0.171875 0.363281,0.199219 0.660156,0.476562 0.890625,0.828125 0.238281,0.355469 0.441406,0.710937 0.609375,1.0625 0.332031,0.886719 0.882813,1.589844 1.65625,2.109375 0.96875,0.5625 1.929687,0.855469 2.890625,0.875 0.96875,0.011719 1.898438,-0.148438 2.796875,-0.484375 0.894531,-0.332031 1.722656,-0.753906 2.484375,-1.265625 0.769531,-0.519531 1.441406,-1.046875 2.015625,-1.578125 0.582031,-0.53125 1.035156,-0.976563 1.359375,-1.34375 C 29.519531,-6.816406 29.691406,-7 29.703125,-7 c 0.113281,-0.164062 0.269531,-0.257812 0.46875,-0.28125 0.207031,-0.019531 0.390625,0.039062 0.546875,0.171875 z m 0,0"
           id="path10"
           style="fill:#ffffff" />
      </g>
    </g>
  </g>
  <g
     fill="#000000"
     fill-opacity="1"
     id="g16"
     transform="translate(-1.9475836,-2.5425711)"
     style="fill:#ffffff">
    <g
       transform="translate(137.41034,187.94996)"
       id="g15"
       style="fill:#ffffff">
      <g
         id="g14"
         style="fill:#ffffff" />
    </g>
  </g>
  <g
     fill="#000000"
     fill-opacity="1"
     id="g19"
     transform="translate(-29.203113,-122.16406)"
     style="fill:#ffffff">
    <g
       transform="translate(147.82492,187.94996)"
       id="g18"
       style="fill:#ffffff">
      <g
         id="g17"
         style="fill:#ffffff">
        <path
           d="m 18.53125,-7.3125 c 0.132812,0.15625 0.203125,0.339844 0.203125,0.546875 0,0.199219 -0.07422,0.367187 -0.21875,0.5 -0.824219,0.804687 -1.820313,1.386719 -2.984375,1.75 -1.167969,0.367187 -2.375,0.585937 -3.625,0.65625 -1.25,0.074219 -2.417969,0.074219 -3.5,0 C 6.125,-4.023438 3.890625,-4.445312 1.703125,-5.125 c -0.21875,-0.070312 -0.398437,-0.054688 -0.53125,0.046875 -0.125,0.105469 -0.179687,0.277344 -0.15625,0.515625 0.00781,0.261719 0.03125,0.539062 0.0625,0.828125 0.03125,0.292969 0.0625,0.585937 0.09375,0.875 C 1.335938,-0.910156 1.476562,0.957031 1.59375,2.75 1.707031,4.550781 1.726562,6.179688 1.65625,7.640625 1.59375,9.097656 1.398438,10.300781 1.078125,11.25 0.753906,12.207031 0.238281,12.804688 -0.46875,13.046875 -0.625,13.097656 -0.773438,13.125 -0.921875,13.125 c -0.332031,0 -0.625,-0.109375 -0.875,-0.328125 C -2.148438,12.460938 -2.382812,11.84375 -2.5,10.9375 -2.625,10.03125 -2.65625,8.929688 -2.59375,7.640625 -2.539062,6.359375 -2.410156,4.976562 -2.203125,3.5 c 0.199219,-1.480469 0.445313,-2.96875 0.734375,-4.46875 0.292969,-1.5 0.605469,-2.910156 0.9375,-4.234375 0,-0.039063 0,-0.078125 0,-0.109375 -0.050781,-0.75 -0.046875,-1.25 0.015625,-1.5 0.0625,-0.257812 0.210937,-0.4375 0.4375,-0.53125 0.0117188,-0.125 0.0625,-0.242188 0.15625,-0.359375 L 0.140625,-7.75 c 0.257813,-0.882812 0.550781,-1.804688 0.875,-2.765625 0.332031,-0.957031 0.691406,-1.882813 1.078125,-2.78125 0.394531,-0.894531 0.816406,-1.671875 1.265625,-2.328125 0.445313,-0.664062 0.921875,-1.140625 1.421875,-1.421875 0.46875,-0.28125 0.960938,-0.347656 1.484375,-0.203125 0.507813,0.136719 0.835937,0.453125 0.984375,0.953125 0.09375,0.398437 0.035156,0.886719 -0.171875,1.46875 -0.199219,0.574219 -0.511719,1.199219 -0.9375,1.875 -0.417969,0.667969 -0.886719,1.34375 -1.40625,2.03125 C 4.222656,-10.242188 3.707031,-9.601562 3.1875,-9 c -0.523438,0.605469 -0.980469,1.132812 -1.375,1.578125 -0.179688,0.210937 -0.265625,0.382813 -0.265625,0.515625 0.00781,0.125 0.175781,0.246094 0.5,0.359375 0.632813,0.199219 1.457031,0.40625 2.46875,0.625 1.019531,0.21875 2.128906,0.390625 3.328125,0.515625 1.207031,0.117188 2.414062,0.148438 3.625,0.09375 1.21875,-0.0625 2.351562,-0.242188 3.40625,-0.546875 1.0625,-0.3125 1.925781,-0.796875 2.59375,-1.453125 C 17.625,-7.457031 17.800781,-7.53125 18,-7.53125 c 0.207031,0 0.382812,0.074219 0.53125,0.21875 z M 5.484375,-15.765625 c -0.117187,0.09375 -0.304687,0.324219 -0.5625,0.6875 -0.261719,0.367187 -0.546875,0.792969 -0.859375,1.28125 -0.304688,0.480469 -0.59375,0.960937 -0.875,1.4375 -0.28125,0.480469 -0.507812,0.886719 -0.671875,1.21875 -0.167969,0.335937 -0.234375,0.542969 -0.203125,0.625 0.03125,0.08594 0.191406,-0.03125 0.484375,-0.34375 0.394531,-0.394531 0.785156,-0.867187 1.171875,-1.421875 0.394531,-0.550781 0.742188,-1.097656 1.046875,-1.640625 0.3125,-0.539063 0.539063,-0.988281 0.6875,-1.34375 0.15625,-0.363281 0.195313,-0.578125 0.125,-0.640625 -0.074219,-0.03125 -0.152344,-0.01563 -0.234375,0.04687 -0.074219,0.0625 -0.109375,0.09375 -0.109375,0.09375 z M -0.875,11.625 c 0.15625,0.0078 0.296875,-0.1875 0.421875,-0.59375 0.117187,-0.40625 0.214844,-0.964844 0.296875,-1.671875 0.0859375,-0.699219 0.15234375,-1.46875 0.203125,-2.3125 0.0625,-0.835937 0.101563,-1.671875 0.125,-2.515625 0.019531,-0.835938 0.019531,-1.609375 0,-2.328125 C 0.148438,1.492188 0.113281,0.925781 0.0625,0.5 0.0195312,0.0703125 -0.0351562,-0.140625 -0.109375,-0.140625 c -0.113281,0 -0.226563,0.28125 -0.34375,0.84375 C -0.578125,1.265625 -0.695312,1.988281 -0.8125,2.875 -0.925781,3.757812 -1.023438,4.695312 -1.109375,5.6875 -1.191406,6.675781 -1.238281,7.613281 -1.25,8.5 c -0.019531,0.882812 -0.00391,1.613281 0.046875,2.1875 0.054687,0.582031 0.164063,0.894531 0.328125,0.9375 z m 0,0"
           id="path16"
           style="fill:#ffffff" />
      </g>
    </g>
  </g>
  <g
     fill="#000000"
     fill-opacity="1"
     id="g22"
     transform="translate(-29.203113,-122.16406)"
     style="fill:#ffffff">
    <g
       transform="translate(165.18255,187.94996)"
       id="g21"
       style="fill:#ffffff">
      <g
         id="g20"
         style="fill:#ffffff">
        <path
           d="m 24.296875,-7.953125 c 0.132813,0.136719 0.207031,0.308594 0.21875,0.515625 0.0078,0.199219 -0.0625,0.371094 -0.21875,0.515625 -0.6875,0.730469 -1.554687,1.5 -2.59375,2.3125 -1.03125,0.8125 -2.164063,1.574219 -3.390625,2.28125 -1.21875,0.710937 -2.46875,1.289063 -3.75,1.734375 -1.273438,0.449219 -2.484375,0.671875 -3.640625,0.671875 0,0 -0.01172,0 -0.03125,0 -0.02344,0 -0.03125,0 -0.03125,0 C 9.140625,0.0664062 7.78125,-0.488281 6.78125,-1.59375 6.550781,-1.832031 6.363281,-2.109375 6.21875,-2.421875 6.082031,-2.742188 5.988281,-3.078125 5.9375,-3.421875 5.894531,-3.679688 5.75,-3.847656 5.5,-3.921875 5.25,-3.992188 5.03125,-3.9375 4.84375,-3.75 4.28125,-3.15625 3.691406,-2.628906 3.078125,-2.171875 2.460938,-1.710938 1.851562,-1.398438 1.25,-1.234375 c -0.59375,0.167969 -1.140625,0.105469 -1.640625,-0.1875 -0.488281,-0.28125 -0.753906,-0.707031 -0.796875,-1.28125 -0.050781,-0.582031 0.027344,-1.21875 0.234375,-1.90625 0.210937,-0.695313 0.46875,-1.367187 0.78125,-2.015625 0.300781,-0.644531 0.5625,-1.179688 0.78125,-1.609375 0.113281,-0.164063 0.269531,-0.273437 0.46875,-0.328125 0.195313,-0.0625 0.378906,-0.035156 0.546875,0.078125 0.164062,0.09375 0.273438,0.242187 0.328125,0.4375 C 2.015625,-7.847656 2,-7.664062 1.90625,-7.5 1.4375,-6.675781 1.066406,-5.914062 0.796875,-5.21875 0.523438,-4.519531 0.351562,-3.941406 0.28125,-3.484375 0.207031,-3.023438 0.234375,-2.757812 0.359375,-2.6875 0.609375,-2.539062 0.96875,-2.597656 1.4375,-2.859375 1.914062,-3.117188 2.453125,-3.523438 3.046875,-4.078125 3.648438,-4.628906 4.257812,-5.269531 4.875,-6 5.488281,-6.738281 6.066406,-7.492188 6.609375,-8.265625 6.703125,-8.429688 6.835938,-8.53125 7.015625,-8.5625 7.191406,-8.601562 7.363281,-8.585938 7.53125,-8.515625 7.695312,-8.421875 7.8125,-8.289062 7.875,-8.125 7.945312,-7.957031 7.953125,-7.785156 7.890625,-7.609375 7.796875,-7.367188 7.695312,-7.03125 7.59375,-6.59375 7.5,-6.15625 7.421875,-5.675781 7.359375,-5.15625 c -0.054687,0.511719 -0.046875,1 0.015625,1.46875 0.0625,0.460938 0.226562,0.828125 0.5,1.109375 0.707031,0.78125 1.703125,1.183594 2.984375,1.203125 0.01953,0 0.03516,0 0.04687,0 0.0078,0 0.01563,0 0.01563,0 1.039063,0 2.144531,-0.210938 3.3125,-0.640625 1.164063,-0.425781 2.316406,-0.972656 3.453125,-1.640625 1.144531,-0.675781 2.203125,-1.390625 3.171875,-2.140625 0.96875,-0.757813 1.757813,-1.46875 2.375,-2.125 0.15625,-0.144531 0.332031,-0.222656 0.53125,-0.234375 0.207031,-0.00781 0.382813,0.058594 0.53125,0.203125 z M 2.625,-11.921875 c -0.167969,0 -0.3125,-0.04687 -0.4375,-0.140625 -0.167969,-0.132812 -0.265625,-0.300781 -0.296875,-0.5 -0.03125,-0.195312 0.019531,-0.378906 0.15625,-0.546875 0.21875,-0.3125 0.523437,-0.648437 0.921875,-1.015625 0.394531,-0.363281 0.804688,-0.640625 1.234375,-0.828125 0.1875,-0.09375 0.375,-0.101563 0.5625,-0.03125 0.1875,0.07422 0.328125,0.203125 0.421875,0.390625 0.070312,0.1875 0.066406,0.375 -0.015625,0.5625 -0.074219,0.1875 -0.203125,0.328125 -0.390625,0.421875 -0.242188,0.117187 -0.507812,0.296875 -0.796875,0.546875 -0.28125,0.25 -0.539063,0.527344 -0.765625,0.828125 -0.148438,0.210937 -0.34375,0.3125 -0.59375,0.3125 z m 4.90625,0 c -0.167969,0 -0.320312,-0.04687 -0.453125,-0.140625 -0.167969,-0.132812 -0.265625,-0.300781 -0.296875,-0.5 -0.023438,-0.195312 0.03125,-0.378906 0.15625,-0.546875 0.226562,-0.3125 0.535156,-0.648437 0.921875,-1.015625 0.394531,-0.363281 0.804687,-0.640625 1.234375,-0.828125 0.1875,-0.09375 0.375,-0.101563 0.5625,-0.03125 0.1875,0.07422 0.328125,0.203125 0.421875,0.390625 0.07031,0.1875 0.07031,0.375 0,0.5625 -0.07422,0.1875 -0.203125,0.328125 -0.390625,0.421875 -0.242188,0.117187 -0.507812,0.296875 -0.796875,0.546875 -0.292969,0.25 -0.546875,0.527344 -0.765625,0.828125 -0.15625,0.210937 -0.355469,0.3125 -0.59375,0.3125 z m 0,0"
           id="path19"
           style="fill:#ffffff" />
      </g>
    </g>
  </g>
  <g
     fill="#000000"
     fill-opacity="1"
     id="g25"
     transform="translate(-29.203113,-122.16406)"
     style="fill:#ffffff">
    <g
       transform="translate(188.36339,187.94996)"
       id="g24"
       style="fill:#ffffff">
      <g
         id="g23"
         style="fill:#ffffff">
        <path
           d="m 24.171875,-7.359375 c 0.125,0.148437 0.1875,0.3125 0.1875,0.5 0,0.210937 -0.07422,0.386719 -0.21875,0.53125 -0.96875,0.949219 -2.054687,1.765625 -3.25,2.453125 -1.199219,0.679688 -2.4375,1.242188 -3.71875,1.6875 -1.273437,0.449219 -2.511719,0.78125 -3.71875,1 C 12.242188,-0.976562 11.144531,-0.875 10.15625,-0.875 9.09375,-0.8125 8.066406,-1.003906 7.078125,-1.453125 6.410156,-1.847656 5.957031,-2.273438 5.71875,-2.734375 5.488281,-3.203125 5.390625,-3.679688 5.421875,-4.171875 5.460938,-4.671875 5.570312,-5.140625 5.75,-5.578125 5.925781,-6.023438 6.097656,-6.40625 6.265625,-6.71875 6.304688,-6.789062 6.289062,-6.84375 6.21875,-6.875 6.144531,-6.914062 6.015625,-6.890625 5.828125,-6.796875 c -1.03125,0.554687 -2.136719,0.804687 -3.3125,0.75 -0.523437,0.023437 -1.03125,-0.082031 -1.53125,-0.3125 -0.1875,0.0625 -0.375,0.046875 -0.5625,-0.046875 C 0.117188,-6.5625 -0.0078125,-6.804688 0.03125,-7.140625 -0.25,-7.472656 -0.445312,-7.851562 -0.5625,-8.28125 -0.78125,-9.050781 -0.757812,-9.804688 -0.5,-10.546875 c 0.261719,-0.75 0.71875,-1.367187 1.375,-1.859375 0.78125,-0.46875 1.394531,-0.484375 1.84375,-0.04687 0.050781,0.05469 0.117188,0.152344 0.203125,0.296875 0.082031,0.136719 0.132813,0.355469 0.15625,0.65625 0.019531,0.292969 -0.042969,0.710938 -0.1875,1.25 -0.136719,0.542969 -0.402344,1.25 -0.796875,2.125 -0.03125,0.074219 0,0.199219 0.09375,0.375 0.09375,0.167969 0.203125,0.25 0.328125,0.25 1.082031,0 2.101563,-0.269531 3.0625,-0.8125 0.3125,-0.164062 0.644531,-0.304688 1,-0.421875 0.351563,-0.113281 0.726563,-0.019531 1.125,0.28125 0.382813,0.292969 0.507813,0.664063 0.375,1.109375 -0.125,0.4375 -0.289063,0.859375 -0.484375,1.265625 -0.4375,0.875 -0.667969,1.5625 -0.6875,2.0625 -0.011719,0.492187 0.300781,0.921875 0.9375,1.296875 0.351562,0.210938 0.953125,0.339844 1.796875,0.390625 0.851563,0.042969 1.84375,-0.023437 2.96875,-0.203125 1.132813,-0.175781 2.328125,-0.460938 3.578125,-0.859375 1.25,-0.40625 2.46875,-0.9375 3.65625,-1.59375 1.195312,-0.65625 2.28125,-1.457031 3.25,-2.40625 0.15625,-0.132813 0.332031,-0.203125 0.53125,-0.203125 0.207031,0 0.390625,0.078125 0.546875,0.234375 z M 0.8125,-8.90625 c 0.332031,-0.707031 0.59375,-1.441406 0.78125,-2.203125 -0.6875,0.59375 -0.949219,1.328125 -0.78125,2.203125 z m 0,0"
           id="path22"
           style="fill:#ffffff" />
      </g>
    </g>
  </g>
  <g
     fill="#000000"
     fill-opacity="1"
     id="g28"
     transform="translate(-1.9475836,-2.5425711)"
     style="fill:#ffffff">
    <g
       transform="translate(211.32026,187.94996)"
       id="g27"
       style="fill:#ffffff">
      <g
         id="g26"
         style="fill:#ffffff" />
    </g>
  </g>
  <g
     fill="#000000"
     fill-opacity="1"
     id="g31"
     transform="translate(-29.203113,-122.16406)"
     style="fill:#ffffff">
    <g
       transform="translate(221.73485,187.94996)"
       id="g30"
       style="fill:#ffffff">
      <g
         id="g29"
         style="fill:#ffffff">
        <path
           d="m 19.203125,-1.03125 c -0.875,0.449219 -1.808594,0.671875 -2.796875,0.671875 -1.011719,0 -1.96875,-0.222656 -2.875,-0.671875 C 12.5,-1.5 11.773438,-2.148438 11.359375,-2.984375 c -0.40625,-0.832031 -0.59375,-1.785156 -0.5625,-2.859375 0.03125,-1.082031 0.210937,-2.25 0.546875,-3.5 0.332031,-1.257812 0.753906,-2.539062 1.265625,-3.84375 0.519531,-1.300781 1.050781,-2.597656 1.59375,-3.890625 0.40625,-0.957031 0.796875,-1.90625 1.171875,-2.84375 0.375,-0.945313 0.695312,-1.832031 0.96875,-2.65625 0.269531,-0.832031 0.441406,-1.570313 0.515625,-2.21875 0.07031,-0.644531 0.01563,-1.144531 -0.171875,-1.5 -0.210938,-0.351563 -0.515625,-0.546875 -0.921875,-0.578125 -1.105469,-0.207031 -2.273437,-0.164062 -3.5,0.125 -1.21875,0.292969 -2.40625,0.765625 -3.5625,1.421875 -1.15625,0.648437 -2.199219,1.445313 -3.125,2.390625 -0.917969,0.9375 -1.621094,1.960938 -2.109375,3.0625 -0.242188,0.542969 -0.417969,1.152344 -0.53125,1.828125 -0.117188,0.667969 -0.109375,1.371094 0.015625,2.109375 0.132813,0.730469 0.453125,1.480469 0.953125,2.25 0.507812,0.761719 1.257812,1.527344 2.25,2.296875 0.164062,0.105469 0.265625,0.261719 0.296875,0.46875 0.03125,0.210937 -0.011719,0.386719 -0.125,0.53125 -0.136719,0.167969 -0.304687,0.265625 -0.5,0.296875 -0.1875,0.03125 -0.367187,-0.0078 -0.53125,-0.125 C 3.460938,-11.601562 2.269531,-13.191406 1.71875,-14.984375 1.164062,-16.773438 1.3125,-18.613281 2.15625,-20.5 c 0.539062,-1.25 1.328125,-2.398438 2.359375,-3.453125 1.039063,-1.050781 2.210937,-1.945313 3.515625,-2.6875 1.3125,-0.738281 2.65625,-1.257813 4.03125,-1.5625 1.382812,-0.3125 2.710938,-0.347656 3.984375,-0.109375 0.851563,0.117188 1.492187,0.558594 1.921875,1.328125 0.375,0.6875 0.476562,1.5625 0.3125,2.625 -0.167969,1.0625 -0.511719,2.261719 -1.03125,3.59375 -0.511719,1.335937 -1.074219,2.75 -1.6875,4.25 -0.5,1.15625 -0.984375,2.335937 -1.453125,3.53125 -0.46875,1.1875 -0.871094,2.339844 -1.203125,3.453125 -0.335938,1.105469 -0.539062,2.136719 -0.609375,3.09375 -0.07422,0.949219 0.01953,1.777344 0.28125,2.484375 0.269531,0.710937 0.789063,1.242187 1.5625,1.59375 0.6875,0.367187 1.421875,0.546875 2.203125,0.546875 0.789062,0 1.53125,-0.179688 2.21875,-0.546875 1.269531,-0.613281 2.492188,-1.757813 3.671875,-3.4375 1.175781,-1.675781 2.257813,-3.785156 3.25,-6.328125 1,-2.550781 1.863281,-5.441406 2.59375,-8.671875 0.03906,-0.1875 0.144531,-0.335937 0.3125,-0.453125 0.164063,-0.113281 0.34375,-0.148438 0.53125,-0.109375 0.1875,0.01172 0.335937,0.101563 0.453125,0.265625 0.125,0.15625 0.179688,0.328125 0.171875,0.515625 -0.117187,0.949219 -0.246094,1.898437 -0.390625,2.84375 -0.136719,0.9375 -0.277344,1.867187 -0.421875,2.78125 -0.28125,1.71875 -0.523437,3.371094 -0.71875,4.953125 -0.199219,1.574219 -0.257813,2.976562 -0.171875,4.203125 0.08203,1.230469 0.40625,2.183594 0.96875,2.859375 0.726562,0.78125 1.625,1.148438 2.6875,1.09375 1.0625,0 2.050781,-0.335938 2.96875,-1.015625 0.914062,-0.6875 1.742188,-1.601563 2.484375,-2.75 0.75,-1.15625 1.398437,-2.421875 1.953125,-3.796875 0.550781,-1.382812 0.992188,-2.757812 1.328125,-4.125 0.425781,-1.675781 0.707031,-3.296875 0.84375,-4.859375 0.144531,-1.570313 0.15625,-3 0.03125,-4.28125 -0.117187,-1.289063 -0.359375,-2.375 -0.734375,-3.25 -0.375,-0.882813 -0.871094,-1.484375 -1.484375,-1.796875 -0.261719,-0.113281 -0.402344,-0.320312 -0.421875,-0.625 -0.02344,-0.269531 0.09375,-0.484375 0.34375,-0.640625 0.238281,-0.164063 0.476562,-0.179687 0.71875,-0.04687 0.9375,0.460938 1.648438,1.246094 2.140625,2.359375 0.5,1.117187 0.804687,2.417969 0.921875,3.90625 0.125,1.492187 0.101562,3.070313 -0.0625,4.734375 -0.167969,1.65625 -0.453125,3.28125 -0.859375,4.875 -0.398437,1.5625 -0.90625,3.109375 -1.53125,4.640625 -0.625,1.53125 -1.371094,2.921875 -2.234375,4.171875 -0.855469,1.242188 -1.820312,2.21875 -2.890625,2.9375 -1.074219,0.710938 -2.257813,1.046875 -3.546875,1.015625 -1.511719,0.054687 -2.773438,-0.476563 -3.78125,-1.59375 -0.636719,-0.769531 -1.03125,-1.726563 -1.1875,-2.875 -0.15625,-1.144531 -0.179688,-2.4375 -0.0625,-3.875 0.0078,-0.207031 -0.08594,-0.335937 -0.28125,-0.390625 -0.210938,-0.0625 -0.359375,0 -0.453125,0.1875 -0.804687,1.742188 -1.746094,3.324219 -2.828125,4.75 -1.085938,1.429688 -2.308594,2.480469 -3.671875,3.15625 z m 0,0"
           id="path28"
           style="fill:#ffffff" />
      </g>
    </g>
  </g>
  <g
     fill="#000000"
     fill-opacity="1"
     id="g34"
     transform="translate(-29.203113,-122.16406)"
     style="fill:#ffffff">
    <g
       transform="translate(263.95307,187.94996)"
       id="g33"
       style="fill:#ffffff">
      <g
         id="g32"
         style="fill:#ffffff">
        <path
           d="m 20.4375,-7.953125 c 0.15625,0.148437 0.234375,0.324219 0.234375,0.53125 0,0.210937 -0.07813,0.375 -0.234375,0.5 -1.199219,1.199219 -2.46875,2.148437 -3.8125,2.84375 -1.34375,0.699219 -2.6875,1.199219 -4.03125,1.5 -1.34375,0.304687 -2.621094,0.4375 -3.828125,0.40625 C 7.566406,-2.203125 6.519531,-2.347656 5.625,-2.609375 5.5,-2.640625 5.394531,-2.59375 5.3125,-2.46875 c -0.242188,0.5625 -0.609375,1.015625 -1.109375,1.359375 -0.492187,0.335937 -1.042969,0.507813 -1.65625,0.515625 -0.617187,0 -1.183594,-0.144531 -1.703125,-0.4375 C 0.132812,-1.375 -0.367188,-1.898438 -0.671875,-2.609375 -0.972656,-3.316406 -1,-4.039062 -0.75,-4.78125 -0.582031,-5.4375 -0.296875,-6.054688 0.109375,-6.640625 0.523438,-7.234375 0.992188,-7.71875 1.515625,-8.09375 2.035156,-8.46875 2.53125,-8.65625 3,-8.65625 h 0.03125 c 0.195312,0 0.363281,0.078125 0.5,0.234375 0.144531,0.148437 0.21875,0.324219 0.21875,0.53125 0,0.1875 -0.078125,0.351563 -0.234375,0.484375 C 3.367188,-7.269531 3.195312,-7.203125 3,-7.203125 c -0.167969,0 -0.417969,0.136719 -0.75,0.40625 -0.324219,0.261719 -0.640625,0.601563 -0.953125,1.015625 -0.304687,0.417969 -0.523437,0.871094 -0.65625,1.359375 -0.148437,0.40625 -0.136719,0.8125 0.03125,1.21875 0.164063,0.398437 0.445313,0.679687 0.84375,0.84375 0.332031,0.273437 0.703125,0.386719 1.109375,0.34375 0.414062,-0.050781 0.753906,-0.238281 1.015625,-0.5625 0.09375,-0.113281 0.191406,-0.257813 0.296875,-0.4375 C 4.050781,-3.191406 4.023438,-3.332031 3.859375,-3.4375 3.335938,-3.78125 3.015625,-4.257812 2.890625,-4.875 2.753906,-5.488281 2.851562,-6.054688 3.1875,-6.578125 3.632812,-7.347656 4.046875,-7.78125 4.421875,-7.875 c 0.375,-0.09375 0.691406,-0.0625 0.953125,0.09375 0.375,0.210938 0.609375,0.617188 0.703125,1.21875 0.09375,0.605469 0.082031,1.25 -0.03125,1.9375 -0.042969,0.167969 -0.00781,0.335938 0.109375,0.5 0.113281,0.15625 0.253906,0.25 0.421875,0.28125 1.570313,0.273438 3.125,0.289062 4.65625,0.046875 1.539063,-0.25 3.003906,-0.722656 4.390625,-1.421875 1.394531,-0.695312 2.65625,-1.609375 3.78125,-2.734375 0.125,-0.144531 0.289062,-0.21875 0.5,-0.21875 0.207031,0 0.382812,0.074219 0.53125,0.21875 z M 4.59375,-4.78125 C 4.664062,-5.226562 4.679688,-5.6875 4.640625,-6.15625 4.628906,-6.101562 4.601562,-6.050781 4.5625,-6 4.53125,-5.957031 4.492188,-5.910156 4.453125,-5.859375 4.335938,-5.679688 4.289062,-5.488281 4.3125,-5.28125 c 0.019531,0.199219 0.113281,0.367188 0.28125,0.5 z m 0,0"
           id="path31"
           style="fill:#ffffff" />
      </g>
    </g>
  </g>
  <g
     fill="#000000"
     fill-opacity="1"
     id="g37"
     transform="translate(-29.203113,-122.16406)"
     style="fill:#ffffff">
    <g
       transform="translate(283.29843,187.94996)"
       id="g36"
       style="fill:#ffffff">
      <g
         id="g35"
         style="fill:#ffffff">
        <path
           d="m 24.171875,-7.359375 c 0.125,0.148437 0.1875,0.3125 0.1875,0.5 0,0.210937 -0.07422,0.386719 -0.21875,0.53125 -0.96875,0.949219 -2.054687,1.765625 -3.25,2.453125 -1.199219,0.679688 -2.4375,1.242188 -3.71875,1.6875 -1.273437,0.449219 -2.511719,0.78125 -3.71875,1 C 12.242188,-0.976562 11.144531,-0.875 10.15625,-0.875 9.09375,-0.8125 8.066406,-1.003906 7.078125,-1.453125 6.410156,-1.847656 5.957031,-2.273438 5.71875,-2.734375 5.488281,-3.203125 5.390625,-3.679688 5.421875,-4.171875 5.460938,-4.671875 5.570312,-5.140625 5.75,-5.578125 5.925781,-6.023438 6.097656,-6.40625 6.265625,-6.71875 6.304688,-6.789062 6.289062,-6.84375 6.21875,-6.875 6.144531,-6.914062 6.015625,-6.890625 5.828125,-6.796875 c -1.03125,0.554687 -2.136719,0.804687 -3.3125,0.75 -0.523437,0.023437 -1.03125,-0.082031 -1.53125,-0.3125 -0.1875,0.0625 -0.375,0.046875 -0.5625,-0.046875 C 0.117188,-6.5625 -0.0078125,-6.804688 0.03125,-7.140625 -0.25,-7.472656 -0.445312,-7.851562 -0.5625,-8.28125 -0.78125,-9.050781 -0.757812,-9.804688 -0.5,-10.546875 c 0.261719,-0.75 0.71875,-1.367187 1.375,-1.859375 0.78125,-0.46875 1.394531,-0.484375 1.84375,-0.04687 0.050781,0.05469 0.117188,0.152344 0.203125,0.296875 0.082031,0.136719 0.132813,0.355469 0.15625,0.65625 0.019531,0.292969 -0.042969,0.710938 -0.1875,1.25 -0.136719,0.542969 -0.402344,1.25 -0.796875,2.125 -0.03125,0.074219 0,0.199219 0.09375,0.375 0.09375,0.167969 0.203125,0.25 0.328125,0.25 1.082031,0 2.101563,-0.269531 3.0625,-0.8125 0.3125,-0.164062 0.644531,-0.304688 1,-0.421875 0.351563,-0.113281 0.726563,-0.019531 1.125,0.28125 0.382813,0.292969 0.507813,0.664063 0.375,1.109375 -0.125,0.4375 -0.289063,0.859375 -0.484375,1.265625 -0.4375,0.875 -0.667969,1.5625 -0.6875,2.0625 -0.011719,0.492187 0.300781,0.921875 0.9375,1.296875 0.351562,0.210938 0.953125,0.339844 1.796875,0.390625 0.851563,0.042969 1.84375,-0.023437 2.96875,-0.203125 1.132813,-0.175781 2.328125,-0.460938 3.578125,-0.859375 1.25,-0.40625 2.46875,-0.9375 3.65625,-1.59375 1.195312,-0.65625 2.28125,-1.457031 3.25,-2.40625 0.15625,-0.132813 0.332031,-0.203125 0.53125,-0.203125 0.207031,0 0.390625,0.078125 0.546875,0.234375 z M 0.8125,-8.90625 c 0.332031,-0.707031 0.59375,-1.441406 0.78125,-2.203125 -0.6875,0.59375 -0.949219,1.328125 -0.78125,2.203125 z m 0,0"
           id="path34"
           style="fill:#ffffff" />
      </g>
    </g>
  </g>
  <g
     fill="#000000"
     fill-opacity="1"
     id="g40"
     transform="translate(-29.203113,-122.16406)"
     style="fill:#ffffff">
    <g
       transform="translate(306.25533,187.94996)"
       id="g39"
       style="fill:#ffffff">
      <g
         id="g38"
         style="fill:#ffffff">
        <path
           d="m 19.234375,-7.609375 c 0.144531,0.125 0.21875,0.292969 0.21875,0.5 0,0.210937 -0.07422,0.386719 -0.21875,0.53125 -0.05469,0.054687 -0.324219,0.308594 -0.8125,0.765625 -0.480469,0.460938 -1.125,1.011719 -1.9375,1.65625 C 15.679688,-3.507812 14.769531,-2.875 13.75,-2.25 c -1.011719,0.625 -2.074219,1.152344 -3.1875,1.578125 -1.105469,0.429687 -2.21875,0.640625 -3.34375,0.640625 -0.761719,0 -1.515625,-0.140625 -2.265625,-0.421875 C 3.273438,-1.085938 2.035156,-2.492188 1.234375,-4.671875 0.429688,-6.859375 0.132812,-9.625 0.34375,-12.96875 0.320312,-13.113281 0.253906,-13.234375 0.140625,-13.328125 0.0234375,-13.421875 -0.101562,-13.457031 -0.25,-13.4375 c -1.414062,0.117188 -2.703125,0.214844 -3.859375,0.296875 -1.164063,0.08594 -2.09375,0.152344 -2.78125,0.203125 -0.6875,0.04297 -1.050781,0.0625 -1.09375,0.0625 H -8.03125 c -0.207031,0.01172 -0.382812,-0.05078 -0.53125,-0.1875 -0.15625,-0.132812 -0.234375,-0.304688 -0.234375,-0.515625 0,-0.207031 0.070313,-0.382813 0.203125,-0.53125 0.125,-0.15625 0.292969,-0.234375 0.5,-0.234375 0.042969,0 0.429688,-0.02344 1.15625,-0.07813 0.71875,-0.05078 1.6875,-0.125 2.90625,-0.21875 1.210938,-0.09375 2.554688,-0.1875 4.03125,-0.28125 0.164062,-0.01953 0.300781,-0.101563 0.40625,-0.25 0.101562,-0.15625 0.171875,-0.332031 0.203125,-0.53125 0.175781,-1.101563 0.398437,-2.226563 0.671875,-3.375 0.269531,-1.144531 0.582031,-2.210937 0.9375,-3.203125 0.351562,-0.988281 0.753906,-1.804688 1.203125,-2.453125 0.445313,-0.644531 0.921875,-1.023437 1.421875,-1.140625 0.207031,-0.03125 0.484375,0.0078 0.828125,0.109375 0.34375,0.09375 0.65625,0.433594 0.9375,1.015625 0.207031,0.386719 0.253906,1.042969 0.140625,1.96875 -0.117188,0.929688 -0.339844,2 -0.671875,3.21875 -0.335937,1.210938 -0.726563,2.460938 -1.171875,3.75 -0.09375,0.242188 -0.101562,0.390625 -0.015625,0.453125 0.082031,0.0625 0.148437,0.09375 0.203125,0.09375 1.8125,-0.101563 3.535156,-0.191406 5.171875,-0.265625 1.632813,-0.08203 2.992187,-0.125 4.078125,-0.125 0.195312,0 0.363281,0.07813 0.5,0.234375 0.144531,0.148437 0.21875,0.3125 0.21875,0.5 0,0.210937 -0.07422,0.386719 -0.21875,0.53125 -0.136719,0.148437 -0.304688,0.21875 -0.5,0.21875 -1.125,0 -2.5625,0.03906 -4.3125,0.109375 -1.742188,0.0625 -3.554688,0.167969 -5.4375,0.3125 -0.167969,0 -0.289062,0.02344 -0.359375,0.0625 -0.0625,0.03125 -0.121094,0.117188 -0.171875,0.25 -0.398438,1.15625 -0.789062,2.226562 -1.171875,3.203125 -0.375,0.980469 -0.6875,1.765625 -0.9375,2.359375 0.113281,0.886719 0.304687,1.734375 0.578125,2.546875 0.269531,0.8125 0.644531,1.53125 1.125,2.15625 0.476562,0.625 1.085938,1.078125 1.828125,1.359375 0.84375,0.3125 1.738281,0.398438 2.6875,0.25 0.957031,-0.15625 1.90625,-0.453125 2.84375,-0.890625 0.945313,-0.4375 1.84375,-0.9375 2.6875,-1.5 0.851563,-0.570313 1.613281,-1.140625 2.28125,-1.703125 0.675781,-0.5625 1.207031,-1.023438 1.59375,-1.390625 0.394531,-0.363281 0.601563,-0.550781 0.625,-0.5625 0.125,-0.15625 0.289063,-0.234375 0.5,-0.234375 0.207031,0 0.382813,0.078125 0.53125,0.234375 z m -17.140625,-8.125 c -0.011719,0.117187 -0.015625,0.25 -0.015625,0.40625 0,0.15625 0.070313,0.234375 0.21875,0.234375 0.144531,0 0.296875,-0.0078 0.453125,-0.03125 0.269531,-0.0078 0.4375,-0.164062 0.5,-0.46875 C 3.726562,-17 4.140625,-18.300781 4.484375,-19.5 c 0.351563,-1.207031 0.601563,-2.210938 0.75,-3.015625 0.144531,-0.800781 0.164063,-1.320313 0.0625,-1.5625 -0.042969,-0.113281 -0.121094,-0.1875 -0.234375,-0.21875 -0.105469,-0.01953 -0.199219,0.0078 -0.28125,0.07813 -0.261719,0.28125 -0.558594,0.824219 -0.890625,1.625 -0.335937,0.804688 -0.667969,1.792969 -1,2.96875 -0.324219,1.179688 -0.589844,2.476562 -0.796875,3.890625 z M 1.734375,-11.375 c 0.070313,0 0.171875,-0.09766 0.296875,-0.296875 0.125,-0.207031 0.234375,-0.453125 0.328125,-0.734375 0.101563,-0.28125 0.175781,-0.539062 0.21875,-0.78125 0.050781,-0.238281 0.050781,-0.390625 0,-0.453125 -0.261719,-0.125 -0.507813,-0.101563 -0.734375,0.0625 -0.074219,0.07422 -0.132812,0.230469 -0.171875,0.46875 -0.03125,0.230469 -0.058594,0.480469 -0.078125,0.75 -0.023438,0.273437 -0.015625,0.507813 0.015625,0.703125 0.03125,0.1875 0.070313,0.28125 0.125,0.28125 z m 0,0"
           id="path37"
           style="fill:#ffffff" />
      </g>
    </g>
  </g>
  <g
     fill="#000000"
     fill-opacity="1"
     id="g43"
     transform="translate(-29.203113,-122.16406)"
     style="fill:#ffffff">
    <g
       transform="translate(323.69692,187.94996)"
       id="g42"
       style="fill:#ffffff">
      <g
         id="g41"
         style="fill:#ffffff">
        <path
           d="m 23.484375,-7.203125 c 0.132813,0.15625 0.191406,0.339844 0.171875,0.546875 -0.02344,0.199219 -0.117188,0.367188 -0.28125,0.5 -0.07422,0.054688 -0.414062,0.296875 -1.015625,0.734375 -0.59375,0.4375 -1.398437,0.964844 -2.40625,1.578125 -1,0.605469 -2.167969,1.210938 -3.5,1.8125 -1.324219,0.59375 -2.742187,1.089844 -4.25,1.484375 C 10.691406,-0.160156 9.132812,0.03125 7.53125,0.03125 5.625,0.0507812 3.796875,-0.296875 2.046875,-1.015625 1.078125,-1.398438 0.394531,-1.851562 0,-2.375 c -0.394531,-0.519531 -0.617188,-1.03125 -0.671875,-1.53125 -0.050781,-0.507812 -0.039063,-0.941406 0.03125,-1.296875 0.167969,-0.695313 0.492187,-1.363281 0.96875,-2 0.488281,-0.644531 1.0625,-1.222656 1.71875,-1.734375 0.65625,-0.519531 1.320313,-0.921875 2,-1.203125 0.675781,-0.28125 1.296875,-0.398437 1.859375,-0.359375 0.5,0 0.929688,0.179688 1.296875,0.53125 0.363281,0.355469 0.566406,0.792969 0.609375,1.3125 0.019531,0.304688 -0.054688,0.671875 -0.21875,1.109375 -0.167969,0.4375 -0.601562,0.882813 -1.296875,1.328125 C 4.710938,-5.226562 2.976562,-4.789062 1.09375,-4.90625 1,-4.914062 0.914062,-4.894531 0.84375,-4.84375 0.769531,-4.789062 0.738281,-4.71875 0.75,-4.625 c -0.011719,0.167969 0.007812,0.386719 0.0625,0.65625 0.050781,0.261719 0.207031,0.53125 0.46875,0.8125 0.269531,0.273438 0.710938,0.53125 1.328125,0.78125 1.269531,0.542969 2.570313,0.851562 3.90625,0.921875 1.332031,0.074219 2.640625,-0.00781 3.921875,-0.25 1.289062,-0.25 2.53125,-0.59375 3.71875,-1.03125 1.1875,-0.4375 2.273438,-0.914063 3.265625,-1.4375 1,-0.519531 1.875,-1.015625 2.625,-1.484375 0.75,-0.46875 1.335937,-0.859375 1.765625,-1.171875 0.425781,-0.320313 0.640625,-0.484375 0.640625,-0.484375 0.164063,-0.125 0.351563,-0.175781 0.5625,-0.15625 0.1875,0.011719 0.34375,0.101562 0.46875,0.265625 z m -21.75,0.59375 c -0.210937,0.28125 -0.1875,0.4375 0.0625,0.46875 0.257813,0.023437 0.617187,-0.035156 1.078125,-0.171875 0.46875,-0.144531 0.945312,-0.320312 1.4375,-0.53125 0.5,-0.21875 0.898438,-0.421875 1.203125,-0.609375 0.582031,-0.382813 0.851563,-0.738281 0.8125,-1.0625 C 6.304688,-8.710938 6.253906,-8.84375 6.171875,-8.90625 6.085938,-8.976562 5.972656,-9.023438 5.828125,-9.046875 5.222656,-9.078125 4.53125,-8.863281 3.75,-8.40625 2.96875,-7.957031 2.296875,-7.359375 1.734375,-6.609375 Z m 0,0"
           id="path40"
           style="fill:#ffffff" />
      </g>
    </g>
  </g>
  <g
     fill="#000000"
     fill-opacity="1"
     id="g46"
     transform="translate(-29.203113,-122.16406)"
     style="fill:#ffffff">
    <g
       transform="translate(136.64648,225.60787)"
       id="g45"
       style="fill:#ffffff">
      <g
         id="g44"
         style="fill:#ffffff">
        <path
           d="M 2.335938,0 H 4.320312 V -4.816406 L 9.292969,0 h 2.480469 l -5.4375,-5.328125 5.183593,-5.917969 H 9.101562 l -4.78125,5.503906 v -5.503906 H 2.335938 Z m 0,0"
           id="path43"
           style="fill:#ffffff" />
      </g>
    </g>
  </g>
  <g
     fill="#000000"
     fill-opacity="1"
     id="g49"
     transform="translate(-29.203113,-122.16406)"
     style="fill:#ffffff">
    <g
       transform="translate(148.48357,225.60787)"
       id="g48"
       style="fill:#ffffff">
      <g
         id="g47"
         style="fill:#ffffff">
        <path
           d="m 1.601562,-5.632812 c 0,3.328124 2.558594,5.808593 5.996094,5.808593 3.441406,0 6.015625,-2.496093 6.015625,-5.808593 0,-3.359376 -2.527343,-5.804688 -6.015625,-5.804688 -3.375,0 -5.996094,2.558594 -5.996094,5.804688 z m 2.140626,0.035156 c 0,-2.304688 1.648437,-4.050782 3.871093,-4.050782 2.257813,0 3.871094,1.746094 3.871094,4.050782 0,2.285156 -1.695313,4.03125 -3.871094,4.03125 -2.175781,0 -3.871093,-1.777344 -3.871093,-4.03125 z m 0,0"
           id="path46"
           style="fill:#ffffff" />
      </g>
    </g>
  </g>
  <g
     fill="#000000"
     fill-opacity="1"
     id="g52"
     transform="translate(-29.203113,-122.16406)"
     style="fill:#ffffff">
    <g
       transform="translate(163.69592,225.60787)"
       id="g51"
       style="fill:#ffffff">
      <g
         id="g50"
         style="fill:#ffffff">
        <path
           d="M 2.335938,0 H 4.320312 V -6.976562 L 11.375,0.078125 h 0.527344 V -11.246094 H 9.917969 V -4.0625 l -6.957031,-7.246094 h -0.625 z m 0,0"
           id="path49"
           style="fill:#ffffff" />
      </g>
    </g>
  </g>
  <g
     fill="#000000"
     fill-opacity="1"
     id="g55"
     transform="translate(-29.203113,-122.16406)"
     style="fill:#ffffff">
    <g
       transform="translate(177.93249,225.60787)"
       id="g54"
       style="fill:#ffffff">
      <g
         id="g53"
         style="fill:#ffffff">
        <path
           d="m 9.214844,-3.039062 c 0,-1.472657 -0.71875,-2.464844 -3.230469,-3.441407 -1.585937,-0.574219 -2.191406,-1.023437 -2.191406,-1.742187 0,-0.785156 0.542969,-1.441406 1.726562,-1.441406 0.863281,0 1.855469,0.386718 2.511719,0.753906 l 0.640625,-1.761719 C 7.949219,-11.085938 6.765625,-11.4375 5.566406,-11.4375 c -2.398437,0 -3.773437,1.566406 -3.773437,3.261719 0,1.34375 0.75,2.382812 2.941406,3.183593 2.03125,0.753907 2.449219,1.199219 2.449219,1.953126 0,0.71875 -0.609375,1.375 -1.9375,1.375 -1.007813,0 -2.125,-0.382813 -3.054688,-1.007813 l -0.6875,1.792969 c 1.023438,0.621094 2.351563,1.070312 3.679688,1.070312 2.511718,0 4.03125,-1.230468 4.03125,-3.230468 z m 0,0"
           id="path52"
           style="fill:#ffffff" />
      </g>
    </g>
  </g>
  <g
     fill="#000000"
     fill-opacity="1"
     id="g58"
     transform="translate(-29.203113,-122.16406)"
     style="fill:#ffffff">
    <g
       transform="translate(188.63392,225.60787)"
       id="g57"
       style="fill:#ffffff">
      <g
         id="g56"
         style="fill:#ffffff">
        <path
           d="M 0.910156,-9.421875 H 4.671875 V 0 h 2 v -9.421875 h 3.695313 v -1.824219 H 0.910156 Z m 0,0"
           id="path55"
           style="fill:#ffffff" />
      </g>
    </g>
  </g>
  <g
     fill="#000000"
     fill-opacity="1"
     id="g61"
     transform="translate(-29.203113,-122.16406)"
     style="fill:#ffffff">
    <g
       transform="translate(198.99936,225.60787)"
       id="g60"
       style="fill:#ffffff">
      <g
         id="g59"
         style="fill:#ffffff">
        <path
           d="M 4,-2.238281 H 8.832031 L 9.824219,0 h 2.125 L 6.671875,-11.34375 H 6.222656 L 0.945312,0 H 3.023438 Z M 6.414062,-7.695312 8.125,-3.824219 H 4.703125 Z m 0,0"
           id="path58"
           style="fill:#ffffff" />
      </g>
    </g>
  </g>
  <g
     fill="#000000"
     fill-opacity="1"
     id="g64"
     transform="translate(-29.203113,-122.16406)"
     style="fill:#ffffff">
    <g
       transform="translate(211.89226,225.60787)"
       id="g63"
       style="fill:#ffffff">
      <g
         id="g62"
         style="fill:#ffffff">
        <path
           d="M 2.335938,0 H 4.320312 V -6.976562 L 11.375,0.078125 h 0.527344 V -11.246094 H 9.917969 V -4.0625 l -6.957031,-7.246094 h -0.625 z m 0,0"
           id="path61"
           style="fill:#ffffff" />
      </g>
    </g>
  </g>
  <g
     fill="#000000"
     fill-opacity="1"
     id="g67"
     transform="translate(-29.203113,-122.16406)"
     style="fill:#ffffff">
    <g
       transform="translate(226.12883,225.60787)"
       id="g66"
       style="fill:#ffffff">
      <g
         id="g65"
         style="fill:#ffffff">
        <path
           d="m 1.742188,-11.246094 v 1.824219 h 5.730468 l -6.144531,8.8125 V 0 h 9.292969 V -1.824219 H 4.605469 l 6.160156,-8.8125 v -0.609375 z m 0,0"
           id="path64"
           style="fill:#ffffff" />
      </g>
    </g>
  </g>
  <path
     stroke-linecap="butt"
     fill="none"
     stroke-linejoin="miter"
     d="M 58.13673,1.8046905 254.15635,1.6367219"
     stroke="#000000"
     stroke-width="3"
     stroke-opacity="1"
     stroke-miterlimit="4"
     id="path67"
     style="fill:#ffffff;stroke:#ffffff;stroke-opacity:1" />
  <path
     stroke-linecap="butt"
     fill="none"
     stroke-linejoin="miter"
     d="M 58.136731,122.34766 H 252.72269"
     stroke="#000000"
     stroke-width="3"
     stroke-opacity="1"
     stroke-miterlimit="4"
     id="path68"
     style="fill:#ffffff;stroke:#ffffff;stroke-opacity:1" />
  <path
     stroke-linecap="butt"
     fill="none"
     stroke-linejoin="miter"
     d="M 254.15236,28.402346 V 0"
     stroke="#000000"
     stroke-width="3"
     stroke-opacity="1"
     stroke-miterlimit="4"
     id="path69"
     style="fill:#ffffff;stroke:#ffffff;stroke-opacity:1" />
  <path
     stroke-linecap="butt"
     fill="none"
     stroke-linejoin="miter"
     d="M 59.632824,28.703127 V 0.3007808"
     stroke="#000000"
     stroke-width="3"
     stroke-opacity="1"
     stroke-miterlimit="4"
     id="path70"
     style="fill:#ffffff;stroke:#ffffff;stroke-opacity:1" />
  <path
     stroke-linecap="butt"
     fill="none"
     stroke-linejoin="miter"
     d="M 59.628918,122.08985 V 82.058593"
     stroke="#000000"
     stroke-width="3"
     stroke-opacity="1"
     stroke-miterlimit="4"
     id="path71"
     style="fill:#ffffff;stroke:#ffffff;stroke-opacity:1" />
  <path
     stroke-linecap="butt"
     fill="none"
     stroke-linejoin="miter"
     d="M 254.32033,123.84375 254.15627,82.062505"
     stroke="#000000"
     stroke-width="3"
     stroke-opacity="1"
     stroke-miterlimit="4"
     id="path72"
     style="fill:#ffffff;stroke:#ffffff;stroke-opacity:1" />
</svg>
